<svg xmlns="http://www.w3.org/2000/svg" viewBox="-18 -18 36 36">
  <g id="weave" transform="rotate(-15)">
    <path class="fill" d="m -10,-14 8,0 0,28 -8,0 0,-28 z" transform="rotate(0)" />
    <path class="fill" d="m -10,-14 8,0 0,28 -8,0 0,-28 z" transform="rotate(90)" />
    <path class="fill" d="m -10,-14 8,0 0,28 -8,0 0,-28 z" transform="rotate(180)" />
    <path class="fill" d="m -10,-14 8,0 0,28 -8,0 0,-28 z" transform="rotate(270)" />

    <path class="line" d="M -10,-14 l 0,16 M -2,-14 l 0,16 M -10,10 l 0,4 M -2,10 l 0,4" transform="rotate(0)" />
    <path class="line" d="M -10,-14 l 0,16 M -2,-14 l 0,16 M -10,10 l 0,4 M -2,10 l 0,4" transform="rotate(90)" />
    <path class="line" d="M -10,-14 l 0,16 M -2,-14 l 0,16 M -10,10 l 0,4 M -2,10 l 0,4" transform="rotate(180)" />
    <path class="line" d="M -10,-14 l 0,16 M -2,-14 l 0,16 M -10,10 l 0,4 M -2,10 l 0,4" transform="rotate(270)" />
  </g>
  <defs>
    <style type="text/css">
      <![CDATA[
        #weave path.fill
        {
            fill: #DDDDDD;
        }

        #weave path.line
        {
            stroke: #000000;
            stroke-width: 1;
        }
      ]]>
    </style>
  </defs>
</svg>